<svg xmlns="http://www.w3.org/2000/svg" xmlns:xlink="http://www.w3.org/1999/xlink" width="500" zoomAndPan="magnify" viewBox="0 0 375 374.999991" height="500" preserveAspectRatio="xMidYMid meet" version="1.0"><defs><clipPath id="51b5ef7c53"><path d="M 36.53125 37.5 L 338.78125 37.5 L 338.78125 307.5 L 36.53125 307.5 Z M 36.53125 37.5 " clip-rule="nonzero"/></clipPath></defs><g clip-path="url(#51b5ef7c53)"><path fill="#ff0a44" d="M 318.820312 254.894531 C 318.820312 272.945312 304.125 287.628906 286.066406 287.628906 L 89.222656 287.628906 C 71.164062 287.628906 56.472656 272.945312 56.472656 254.894531 L 56.472656 90.132812 C 56.472656 72.082031 71.164062 57.398438 89.222656 57.398438 L 286.066406 57.398438 C 304.125 57.398438 318.820312 72.082031 318.820312 90.132812 Z M 338.722656 254.894531 L 338.722656 90.132812 C 338.722656 61.113281 315.101562 37.503906 286.066406 37.503906 L 89.222656 37.503906 C 60.191406 37.503906 36.570312 61.113281 36.570312 90.132812 L 36.570312 254.894531 C 36.570312 283.914062 60.191406 307.523438 89.222656 307.523438 L 286.066406 307.523438 C 315.101562 307.523438 338.722656 283.914062 338.722656 254.894531 " fill-opacity="1" fill-rule="nonzero"/></g><path fill="#ff0a44" d="M 241.589844 182.835938 L 158.234375 225.082031 C 151.304688 228.589844 143.113281 223.558594 143.113281 215.796875 L 143.125 131.28125 C 143.125 123.519531 151.320312 118.492188 158.246094 122.003906 L 241.59375 164.273438 C 249.195312 168.128906 249.191406 178.984375 241.589844 182.835938 " fill-opacity="1" fill-rule="nonzero"/></svg>