<svg xmlns="http://www.w3.org/2000/svg" xmlns:xlink="http://www.w3.org/1999/xlink" width="500" zoomAndPan="magnify" viewBox="0 0 375 374.999991" height="500" preserveAspectRatio="xMidYMid meet" version="1.0"><defs><clipPath id="7dad4dcd0a"><path d="M 10 15 L 363 15 L 363 367.164062 L 10 367.164062 Z M 10 15 " clip-rule="nonzero"/></clipPath></defs><g clip-path="url(#7dad4dcd0a)"><path fill="#000000" d="M 229.679688 367.164062 C 223.363281 332.691406 238.089844 296.574219 217.402344 263.605469 C 225.671875 260.984375 234.003906 258.8125 241.988281 255.742188 C 287.359375 238.277344 305.558594 189.394531 281.839844 147.175781 C 276.597656 137.84375 274.621094 129.386719 275.8125 118.734375 C 276.894531 109.082031 274.449219 99.035156 273.203125 85.253906 C 259.570312 90.808594 249.089844 95.804688 238.132812 99.300781 C 230.203125 101.789062 222.082031 103.164062 213.773438 103.421875 C 196.476562 103.976562 178.992188 102.082031 161.882812 103.941406 C 151.625 105.054688 143.609375 103.925781 134.753906 98.949219 C 125.390625 93.691406 114.84375 90.542969 101.703125 85.207031 C 100.152344 98 97.164062 107.9375 98.257812 117.398438 C 99.605469 129 97.007812 138.054688 91.566406 148.242188 C 66.933594 194.355469 91.613281 246.074219 144.003906 259.917969 C 147.929688 260.953125 151.917969 261.761719 156.730469 262.875 C 153.25 270.902344 150.65625 278.535156 146.753906 285.425781 C 142.675781 292.625 128.828125 292.074219 121.089844 284.433594 C 116.882812 280.28125 113.902344 274.917969 110.003906 270.417969 C 102.027344 261.199219 93.011719 253.886719 78.691406 255.652344 C 78.75 265.605469 77.109375 275.277344 89.660156 279.152344 C 91.976562 279.867188 94.074219 282.585938 95.445312 284.875 C 106.546875 303.421875 122.015625 313.648438 145.089844 310.023438 L 145.089844 365.917969 C 82.964844 364.289062 13.25 277.96875 10.746094 199.429688 C 7.710938 104.320312 78.511719 23.824219 172.335938 15.703125 C 262.398438 7.910156 347.800781 74.074219 360.898438 161.789062 C 374.925781 255.71875 315.808594 348.632812 229.679688 367.164062 Z M 229.679688 367.164062 " fill-opacity="1" fill-rule="nonzero"/></g></svg>